<?xml version="1.0" encoding="iso-8859-1"?>
<!-- Generator: Adobe Illustrator 19.0.0, SVG Export Plug-In . SVG Version: 6.00 Build 0)  -->
<svg version="1.1" id="Layer_1" xmlns="http://www.w3.org/2000/svg" xmlns:xlink="http://www.w3.org/1999/xlink" x="0px" y="0px"
	 viewBox="0 0 512 512" style="enable-background:new 0 0 512 512;" xml:space="preserve">
<g>
	<g>
		<g>
			<path d="M123.377,258.155c0.874,9.799,9.264,17.475,19.102,17.475h169.177l-4.589,51.175c-0.136,0.469-0.806,1.267-1.244,1.482
				l-44.73,12.088c-2.038,0.551-3.904,1.055-5.308,1.432c-1.402-0.377-3.268-0.88-5.304-1.43l-44.651-12.057
				c-0.437-0.214-1.104-1.008-1.238-1.475l-2.408-26.972c-0.877-9.797-9.268-17.471-19.103-17.471h-38.168
				c-5.01,0-9.789,2.085-13.114,5.719c-3.324,3.635-4.976,8.579-4.531,13.568l6.155,69.078c0.773,8.676,7.686,16.973,16.077,19.3
				l95.613,26.531c7.166,1.988,9.377,2.602,10.918,2.602c0.687,0,1.242-0.122,2.045-0.299c0.32-0.072,0.407-0.091,8.566-2.351
				l95.512-26.484c7.326-2.033,15.039-7.679,15.753-15.708l13.851-155.126c0.431-4.761-1.139-9.484-4.311-12.958
				c-3.171-3.47-7.727-5.461-12.502-5.461H193.343l-3.161-35.323h196.954c5.273,0,9.676-4.019,10.156-9.269l4.316-47.13
				c0.415-4.672-1.109-9.162-4.292-12.64c-3.351-3.661-8.245-5.763-13.426-5.763c-0.001,0-0.003,0-0.004,0H127.796
				c-5.185,0-10.082,2.1-13.433,5.763c-3.181,3.479-4.705,7.965-4.29,12.641L123.377,258.155z M380.942,111.086l-3.115,34.005
				H187.246c-5.009,0-9.787,2.084-13.111,5.718c-3.324,3.635-4.976,8.579-4.53,13.572l3.52,39.353
				c0.872,9.8,9.265,17.477,19.105,17.477h178.873l-13.28,148.765c-0.32,0.159-0.701,0.317-1.119,0.432l-95.509,26.483
				c-2.063,0.572-3.96,1.096-5.384,1.489c-1.284-0.348-3.058-0.833-5.243-1.439l-95.545-26.511
				c-0.455-0.222-1.151-1.058-1.288-1.547l-5.887-66.084h34.121l2.315,25.929c0.775,8.705,7.723,16.987,16.159,19.265l44.723,12.077
				c9.241,2.495,9.241,2.495,10.623,2.495c1.379,0,1.379,0,10.625-2.498l44.801-12.106c8.435-2.277,15.383-10.557,16.164-19.258
				l4.859-54.176c0.448-4.99-1.203-9.938-4.525-13.573c-3.323-3.635-8.103-5.721-13.113-5.721H143.595L130.73,111.086H380.942z"/>
			<path d="M478.2,5.723C474.876,2.086,470.093,0,465.083,0H46.917c-5.008,0-9.786,2.084-13.11,5.717
				c-3.325,3.634-4.977,8.578-4.533,13.57L67.366,446.53c0.772,8.675,7.683,16.974,16.076,19.305l161.635,44.88
				c3.083,0.857,6.866,1.285,10.65,1.285c3.776,0,7.553-0.427,10.637-1.281l162.127-44.953c8.395-2.327,15.308-10.624,16.082-19.298
				l38.153-427.173C483.173,14.305,481.524,9.359,478.2,5.723z M424.262,444.582c-0.14,0.499-0.861,1.358-1.221,1.527
				l-162.124,44.952c-2.575,0.713-7.814,0.714-10.383-0.001L88.993,446.212c-0.464-0.204-1.206-1.095-1.31-1.49L49.852,20.398
				h412.294L424.262,444.582z"/>
		</g>
	</g>
</g>
<g>
	<g>
		<path d="M190.727,34.679H77.517c-5.632,0-10.199,4.567-10.199,10.199c0,5.632,4.567,10.199,10.199,10.199h113.21
			c5.633,0,10.199-4.567,10.199-10.199C200.926,39.246,196.359,34.679,190.727,34.679z"/>
	</g>
</g>
<g>
	<g>
		<path d="M232.543,34.679h-4.08c-5.632,0-10.199,4.567-10.199,10.199c0,5.632,4.567,10.199,10.199,10.199h4.08
			c5.633,0,10.199-4.567,10.199-10.199C242.742,39.246,238.175,34.679,232.543,34.679z"/>
	</g>
</g>
<g>
</g>
<g>
</g>
<g>
</g>
<g>
</g>
<g>
</g>
<g>
</g>
<g>
</g>
<g>
</g>
<g>
</g>
<g>
</g>
<g>
</g>
<g>
</g>
<g>
</g>
<g>
</g>
<g>
</g>
</svg>
