<?xml version="1.0" encoding="utf-8"?>
<svg xmlns="http://www.w3.org/2000/svg" xmlns:xlink="http://www.w3.org/1999/xlink">

<symbol id="i-html" viewBox="-40 0 512 512.001" xmlns="http://www.w3.org/2000/svg"><path d="m73.003906 195.183594h-24.261718v29.425781c0 2.242187-2.535157 3.410156-5.164063 3.410156-2.535156 0-5.167969-1.167969-5.167969-3.410156v-64.507813c0-2.339843 2.632813-3.3125 5.167969-3.3125 2.628906 0 5.164063.972657 5.164063 3.3125v26.894532h24.261718v-26.894532c0-2.339843 2.632813-3.3125 5.167969-3.3125 2.628906 0 5.164063.972657 5.164063 3.3125v64.507813c0 2.242187-2.535157 3.410156-5.164063 3.410156-2.535156 0-5.167969-1.167969-5.167969-3.410156zm0 0"/><path d="m134.976562 156.789062c2.335938 0 3.410157 2.339844 3.410157 4.578126 0 2.535156-1.167969 4.875-3.410157 4.875h-15.007812v58.367187c0 2.242187-2.628906 3.410156-5.164062 3.410156-2.632813 0-5.164063-1.167969-5.164063-3.410156v-58.367187h-15.105469c-2.144531 0-3.410156-2.242188-3.410156-4.777344 0-2.242188 1.074219-4.675782 3.410156-4.675782zm0 0"/><path d="m176.871094 202.003906c-1.070313 1.753906-2.4375 2.335938-3.800782 2.335938-1.265624 0-2.628906-.582032-3.503906-2.335938l-13.058594-24.753906v47.359375c0 2.242187-2.535156 3.410156-5.167968 3.410156-2.53125 0-5.164063-1.167969-5.164063-3.410156v-62.65625c0-3.800781 2.535157-5.164063 5.164063-5.164063 3.703125 0 5.75 1.265626 8.1875 5.847657l13.640625 25.820312 13.839843-25.820312c2.433594-4.582031 4.382813-5.847657 8.085938-5.847657 2.730469 0 5.164062 1.363282 5.164062 5.164063v62.65625c0 2.242187-2.53125 3.410156-5.164062 3.410156-2.53125 0-5.164062-1.167969-5.164062-3.410156v-46.773437zm0 0"/><path d="m217.699219 228.019531c-2.242188 0-4.582031-1.167969-4.582031-3.410156v-64.507813c0-2.339843 2.632812-3.3125 5.167968-3.3125 2.628906 0 5.164063.972657 5.164063 3.3125v58.757813h25.335937c2.046875 0 3.117188 2.242187 3.117188 4.582031 0 2.242188-1.070313 4.578125-3.117188 4.578125zm0 0"/><path d="m430.527344 105.644531c-7.644532-7.070312-15.285156-14.140625-22.929688-21.210937-19.414062-17.960938-38.824218-35.917969-58.234375-53.878906-7.621093-7.046876-15.238281-14.09375-22.855469-21.140626-3.382812-3.128906-8.175781-9.320312-12.996093-9.41015575-.039063 0-.078125-.00390625-.117188-.00390625h-241.738281c-15.164062 0-27.503906 12.339844-27.503906 27.503906v94.8125h-17.722656c-14.574219 0-26.429688 11.855469-26.429688 26.429688v89.597656c0 14.570312 11.855469 26.425781 26.429688 26.425781h17.722656v56.035157c0 4.140624 3.359375 7.5 7.5 7.5 4.144531 0 7.503906-3.359376 7.503906-7.5v-56.035157h199.5625c14.570312 0 26.425781-11.855469 26.425781-26.425781v-89.597656c0-14.574219-11.855469-26.429688-26.425781-26.429688h-84.257812c-4.140626 0-7.5 3.359375-7.5 7.503906 0 4.140626 3.359374 7.5 7.5 7.5h84.257812c6.296875 0 11.421875 5.125 11.421875 11.425782v89.597656c0 6.296875-5.125 11.421875-11.421875 11.421875h-232.289062c-6.300782 0-11.425782-5.125-11.425782-11.421875v-89.597656c0-6.300782 5.125-11.425782 11.425782-11.425782h102.355468c4.144532 0 7.503906-3.359374 7.503906-7.5 0-4.144531-3.359374-7.503906-7.503906-7.503906h-69.628906v-94.8125c0-6.894531 5.605469-12.5 12.5-12.5h234.238281v76.425782c0 15.167968 12.335938 27.503906 27.503907 27.503906h84.53125v365.5625c0 6.894531-5.605469 12.503906-12.5 12.503906h-333.773438c-6.894531 0-12.5-5.609375-12.5-12.503906v-116.019532c0-4.140624-3.359375-7.5-7.503906-7.5-4.140625 0-7.5 3.359376-7.5 7.5v116.019532c0 15.167968 12.339844 27.503906 27.503906 27.503906h333.773438c15.164062 0 27.503906-12.335938 27.503906-27.503906v-373.347656c0-2.089844-.875-4.085938-2.40625-5.503907zm-97.128906-1.714843c-6.894532 0-12.503907-5.605469-12.503907-12.5v-66.738282l85.421875 79.238282zm0 0"/><path d="m197.222656 292.429688c-2.925781-2.929688-7.675781-2.929688-10.605468 0l-47.007813 47.007812c-2.929687 2.929688-2.929687 7.679688 0 10.609375l47.007813 47.007813c1.464843 1.464843 3.382812 2.195312 5.304687 2.195312 1.917969 0 3.839844-.730469 5.300781-2.195312 2.929688-2.929688 2.929688-7.679688 0-10.609376l-41.703125-41.703124 41.703125-41.707032c2.929688-2.925781 2.929688-7.675781 0-10.605468zm0 0"/><path d="m279.859375 397.054688c1.464844 1.464843 3.386719 2.195312 5.304687 2.195312 1.921876 0 3.839844-.730469 5.304688-2.195312l47.007812-47.007813c2.929688-2.929687 2.929688-7.679687 0-10.609375l-47.007812-47.007812c-2.929688-2.929688-7.679688-2.929688-10.609375 0-2.925781 2.929687-2.925781 7.679687 0 10.605468l41.707031 41.707032-41.707031 41.703124c-2.929687 2.929688-2.929687 7.679688 0 10.609376zm0 0"/><path d="m220.074219 399.253906c2.992187 0 5.824219-1.804687 6.984375-4.761718l36.933594-94.015626c1.515624-3.855468-.382813-8.210937-4.238282-9.726562-3.855468-1.515625-8.210937.382812-9.726562 4.238281l-36.933594 94.019531c-1.515625 3.855469.382812 8.207032 4.238281 9.722657.902344.355469 1.828125.523437 2.742188.523437zm0 0"/></symbol>
<symbol id="i-html5" xmlns="http://www.w3.org/2000/svg" xmlns:xlink="http://www.w3.org/1999/xlink" x="0px" y="0px"
	 viewBox="0 0 512 512" style="enable-background:new 0 0 512 512;" xml:space="preserve">
<g>
	<g>
		<g>
			<path d="M123.377,258.155c0.874,9.799,9.264,17.475,19.102,17.475h169.177l-4.589,51.175c-0.136,0.469-0.806,1.267-1.244,1.482
				l-44.73,12.088c-2.038,0.551-3.904,1.055-5.308,1.432c-1.402-0.377-3.268-0.88-5.304-1.43l-44.651-12.057
				c-0.437-0.214-1.104-1.008-1.238-1.475l-2.408-26.972c-0.877-9.797-9.268-17.471-19.103-17.471h-38.168
				c-5.01,0-9.789,2.085-13.114,5.719c-3.324,3.635-4.976,8.579-4.531,13.568l6.155,69.078c0.773,8.676,7.686,16.973,16.077,19.3
				l95.613,26.531c7.166,1.988,9.377,2.602,10.918,2.602c0.687,0,1.242-0.122,2.045-0.299c0.32-0.072,0.407-0.091,8.566-2.351
				l95.512-26.484c7.326-2.033,15.039-7.679,15.753-15.708l13.851-155.126c0.431-4.761-1.139-9.484-4.311-12.958
				c-3.171-3.47-7.727-5.461-12.502-5.461H193.343l-3.161-35.323h196.954c5.273,0,9.676-4.019,10.156-9.269l4.316-47.13
				c0.415-4.672-1.109-9.162-4.292-12.64c-3.351-3.661-8.245-5.763-13.426-5.763c-0.001,0-0.003,0-0.004,0H127.796
				c-5.185,0-10.082,2.1-13.433,5.763c-3.181,3.479-4.705,7.965-4.29,12.641L123.377,258.155z M380.942,111.086l-3.115,34.005
				H187.246c-5.009,0-9.787,2.084-13.111,5.718c-3.324,3.635-4.976,8.579-4.53,13.572l3.52,39.353
				c0.872,9.8,9.265,17.477,19.105,17.477h178.873l-13.28,148.765c-0.32,0.159-0.701,0.317-1.119,0.432l-95.509,26.483
				c-2.063,0.572-3.96,1.096-5.384,1.489c-1.284-0.348-3.058-0.833-5.243-1.439l-95.545-26.511
				c-0.455-0.222-1.151-1.058-1.288-1.547l-5.887-66.084h34.121l2.315,25.929c0.775,8.705,7.723,16.987,16.159,19.265l44.723,12.077
				c9.241,2.495,9.241,2.495,10.623,2.495c1.379,0,1.379,0,10.625-2.498l44.801-12.106c8.435-2.277,15.383-10.557,16.164-19.258
				l4.859-54.176c0.448-4.99-1.203-9.938-4.525-13.573c-3.323-3.635-8.103-5.721-13.113-5.721H143.595L130.73,111.086H380.942z"/>
			<path d="M478.2,5.723C474.876,2.086,470.093,0,465.083,0H46.917c-5.008,0-9.786,2.084-13.11,5.717
				c-3.325,3.634-4.977,8.578-4.533,13.57L67.366,446.53c0.772,8.675,7.683,16.974,16.076,19.305l161.635,44.88
				c3.083,0.857,6.866,1.285,10.65,1.285c3.776,0,7.553-0.427,10.637-1.281l162.127-44.953c8.395-2.327,15.308-10.624,16.082-19.298
				l38.153-427.173C483.173,14.305,481.524,9.359,478.2,5.723z M424.262,444.582c-0.14,0.499-0.861,1.358-1.221,1.527
				l-162.124,44.952c-2.575,0.713-7.814,0.714-10.383-0.001L88.993,446.212c-0.464-0.204-1.206-1.095-1.31-1.49L49.852,20.398
				h412.294L424.262,444.582z"/>
		</g>
	</g>
</g>
<g>
	<g>
		<path d="M190.727,34.679H77.517c-5.632,0-10.199,4.567-10.199,10.199c0,5.632,4.567,10.199,10.199,10.199h113.21
			c5.633,0,10.199-4.567,10.199-10.199C200.926,39.246,196.359,34.679,190.727,34.679z"/>
	</g>
</g>
<g>
	<g>
		<path d="M232.543,34.679h-4.08c-5.632,0-10.199,4.567-10.199,10.199c0,5.632,4.567,10.199,10.199,10.199h4.08
			c5.633,0,10.199-4.567,10.199-10.199C242.742,39.246,238.175,34.679,232.543,34.679z"/>
	</g>
</g>
<g>
</g>
<g>
</g>
<g>
</g>
<g>
</g>
<g>
</g>
<g>
</g>
<g>
</g>
<g>
</g>
<g>
</g>
<g>
</g>
<g>
</g>
<g>
</g>
<g>
</g>
<g>
</g>
<g>
</g>
</symbol>
</svg>